<?xml version="1.0" encoding="UTF-8"?>
<svg xmlns="http://www.w3.org/2000/svg" xmlns:xlink="http://www.w3.org/1999/xlink" width="150px" height="59px" viewBox="0 0 150 59" version="1.1">
<g id="surface1">
<path style=" stroke:none;fill-rule:nonzero;fill:rgb(0%,10.196078%,24.313725%);fill-opacity:1;" d="M 19.40625 58.835938 L 27.066406 50.203125 C 27.195312 50.074219 27.109375 49.855469 26.894531 49.855469 L 18.460938 49.855469 C 18.417969 49.855469 18.332031 49.8125 18.289062 49.769531 L 11.144531 41.742188 C 11.101562 41.652344 11.058594 41.566406 11.101562 41.480469 L 23.0625 20.886719 C 23.105469 20.800781 23.105469 20.714844 23.0625 20.671875 L 18.117188 12.121094 C 18.027344 11.992188 17.8125 11.992188 17.726562 12.121094 L 0.0429688 42.605469 C 0 42.691406 0 42.777344 0.0429688 42.863281 L 14.242188 58.882812 C 14.285156 58.925781 14.328125 58.96875 14.414062 58.96875 L 19.234375 58.96875 C 19.277344 58.925781 19.363281 58.882812 19.40625 58.835938 Z M 19.40625 58.835938 "/>
<path style=" stroke:none;fill-rule:nonzero;fill:rgb(0%,10.196078%,24.313725%);fill-opacity:1;" d="M 24.65625 0.207031 L 19.664062 8.753906 C 19.621094 8.839844 19.621094 8.925781 19.664062 8.96875 L 24.828125 17.863281 L 38.511719 41.4375 C 38.554688 41.523438 38.554688 41.609375 38.46875 41.695312 L 31.238281 49.8125 L 23.535156 58.535156 C 23.40625 58.664062 23.492188 58.882812 23.710938 58.882812 L 35.242188 58.882812 C 35.285156 58.882812 35.371094 58.835938 35.414062 58.792969 L 49.613281 42.777344 C 49.65625 42.691406 49.699219 42.605469 49.65625 42.515625 L 25 0.207031 C 24.957031 0.03125 24.742188 0.03125 24.65625 0.207031 Z M 70.914062 46.921875 L 70.914062 19.460938 C 70.914062 19.246094 70.652344 19.160156 70.523438 19.332031 L 62.175781 28.703125 C 62.132812 28.746094 62.132812 28.789062 62.132812 28.832031 L 62.132812 55.773438 C 62.132812 55.902344 62.21875 55.988281 62.347656 55.988281 L 83.433594 55.988281 C 83.5625 55.988281 83.648438 55.902344 83.648438 55.773438 L 83.648438 47.351562 C 83.648438 47.222656 83.5625 47.136719 83.433594 47.136719 L 71.128906 47.136719 C 71.042969 47.136719 70.914062 47.050781 70.914062 46.921875 Z M 95.78125 55.773438 L 95.78125 30.039062 C 95.78125 29.824219 95.523438 29.738281 95.394531 29.910156 L 87.046875 39.277344 C 87.003906 39.324219 87.003906 39.367188 87.003906 39.410156 L 87.003906 55.773438 C 87.003906 55.902344 87.089844 55.988281 87.21875 55.988281 L 95.566406 55.988281 C 95.695312 55.988281 95.78125 55.859375 95.78125 55.773438 Z M 140.964844 42.863281 C 140.921875 42.777344 140.921875 42.691406 140.964844 42.605469 L 149.527344 29.824219 C 149.613281 29.695312 149.527344 29.476562 149.355469 29.476562 L 139.757812 29.476562 C 139.671875 29.476562 139.628906 29.523438 139.585938 29.566406 L 133.261719 39.839844 C 133.132812 40.011719 132.875 39.925781 132.875 39.710938 L 132.875 19.417969 C 132.875 19.203125 132.617188 19.117188 132.488281 19.289062 L 124.140625 28.65625 C 124.097656 28.703125 124.097656 28.746094 124.097656 28.789062 L 124.097656 55.773438 C 124.097656 55.902344 124.183594 55.988281 124.3125 55.988281 L 132.660156 55.988281 C 132.789062 55.988281 132.875 55.902344 132.875 55.773438 L 132.875 45.453125 C 132.875 45.238281 133.132812 45.152344 133.261719 45.324219 L 140.273438 55.902344 C 140.320312 55.945312 140.40625 55.988281 140.449219 55.988281 L 149.742188 55.988281 C 149.914062 55.988281 150 55.773438 149.914062 55.644531 Z M 109.941406 56.507812 C 115.363281 56.507812 121.128906 54.21875 121.128906 47.828125 C 121.128906 41.4375 115.792969 40.230469 111.875 39.324219 C 109.726562 38.804688 108.003906 38.414062 108.003906 37.25 C 108.003906 36.34375 108.820312 35.78125 110.15625 35.78125 C 111.53125 35.78125 112.652344 36.472656 113.425781 37.8125 C 113.46875 37.898438 113.597656 37.941406 113.683594 37.898438 L 120.308594 34.917969 C 120.4375 34.875 120.480469 34.746094 120.394531 34.617188 C 118.375 30.902344 114.84375 29.003906 109.941406 29.003906 C 102.839844 28.960938 99.613281 33.320312 99.613281 37.636719 C 99.613281 43.554688 104.863281 44.890625 108.691406 45.886719 C 110.929688 46.445312 112.523438 46.878906 112.523438 48 C 112.523438 48.734375 112.089844 49.640625 109.941406 49.640625 C 107.960938 49.640625 106.539062 48.777344 105.808594 47.050781 C 105.765625 46.921875 105.636719 46.878906 105.507812 46.921875 L 98.667969 50.375 C 98.535156 50.417969 98.492188 50.546875 98.578125 50.675781 C 100.515625 54.605469 104.261719 56.507812 109.941406 56.507812 Z M 109.941406 56.507812 "/>
</g>
</svg>
